<?xml version="1.0" encoding="iso-8859-1"?>
<!-- Uploaded to: SVG Repo, www.svgrepo.com, Generator: SVG Repo Mixer Tools -->
<svg fill="#000000" height="800px" width="800px" version="1.1" id="Layer_1" xmlns="http://www.w3.org/2000/svg" xmlns:xlink="http://www.w3.org/1999/xlink" 
	 viewBox="0 0 511.999 511.999" xml:space="preserve">
<g>
	<g>
		<path d="M505.938,24.365c-3.687-1.636-7.989-0.949-10.979,1.758L3.358,470.748c-3.128,2.829-4.192,7.293-2.676,11.23
			c1.517,3.937,5.299,6.534,9.518,6.534H501.8c5.633,0,10.199-4.567,10.199-10.199V33.686C511.999,29.655,509.623,26,505.938,24.365
			z M491.601,468.113H36.681l454.92-411.45V468.113z"/>
	</g>
</g>
<g>
	<g>
		<path d="M375.195,23.966h-65.547c-5.633,0-10.199,4.567-10.199,10.199c0,5.632,4.566,10.199,10.199,10.199h40.148L27.242,357.863
			c-4.039,3.927-4.132,10.383-0.205,14.423c2,2.057,4.656,3.09,7.315,3.09c2.561,0,5.125-0.959,7.108-2.885L364.995,58.037v41.675
			c0,5.632,4.566,10.199,10.199,10.199c5.633,0,10.199-4.567,10.199-10.199V34.166C385.394,28.534,380.828,23.966,375.195,23.966z"
			/>
	</g>
</g>
<g>
	<g>
		<path d="M466.987,352.938c-5.633,0-10.199,4.567-10.199,10.199v77.514c0,5.632,4.566,10.199,10.199,10.199
			s10.199-4.567,10.199-10.199v-77.514C477.186,357.505,472.62,352.938,466.987,352.938z"/>
	</g>
</g>
<g>
	<g>
		<path d="M466.987,311.121c-5.633,0-10.199,4.567-10.199,10.199v6.12c0,5.632,4.566,10.199,10.199,10.199
			s10.199-4.567,10.199-10.199v-6.12C477.186,315.689,472.62,311.121,466.987,311.121z"/>
	</g>
</g>
</svg>